<svg width="320" height="320" viewBox="0 0 320 320" fill="none" xmlns="http://www.w3.org/2000/svg">
  <defs>
    <linearGradient id="bg" x1="20" y1="20" x2="300" y2="300" gradientUnits="userSpaceOnUse">
      <stop offset="0" stop-color="#D4F0FF"/>
      <stop offset="1" stop-color="#8CC3E8"/>
    </linearGradient>
    <linearGradient id="fur" x1="160" y1="70" x2="160" y2="270" gradientUnits="userSpaceOnUse">
      <stop offset="0" stop-color="#F8C77A"/>
      <stop offset="1" stop-color="#DD9A4D"/>
    </linearGradient>
  </defs>

  <rect x="12" y="12" width="296" height="296" rx="52" fill="url(#bg)"/>
  <circle cx="160" cy="168" r="98" fill="url(#fur)"/>
  <ellipse cx="104" cy="110" rx="26" ry="40" fill="#D2873B"/>
  <ellipse cx="216" cy="110" rx="26" ry="40" fill="#D2873B"/>

  <ellipse cx="124" cy="160" rx="13" ry="16" fill="#1C2A35"/>
  <ellipse cx="196" cy="160" rx="13" ry="16" fill="#1C2A35"/>
  <ellipse cx="160" cy="198" rx="38" ry="30" fill="#FFF2E2"/>
  <ellipse cx="160" cy="188" rx="16" ry="12" fill="#3A2A1E"/>

  <path d="M138 214C146 224 174 224 182 214" stroke="#3A2A1E" stroke-width="6" stroke-linecap="round"/>
  <circle cx="110" cy="182" r="8" fill="#E77D7D" fill-opacity="0.45"/>
  <circle cx="210" cy="182" r="8" fill="#E77D7D" fill-opacity="0.45"/>

  <rect x="26" y="26" width="268" height="268" rx="40" stroke="#FFFFFF" stroke-opacity="0.55" stroke-width="4"/>
</svg>
